<?xml version="1.0" encoding="iso-8859-1"?>
<!-- Uploaded to: SVG Repo, www.svgrepo.com, Generator: SVG Repo Mixer Tools -->
<svg height="800px" width="800px" version="1.1" id="Layer_1" xmlns="http://www.w3.org/2000/svg" xmlns:xlink="http://www.w3.org/1999/xlink" 
	 viewBox="0 0 512.002 512.002" xml:space="preserve">
<circle style="fill:#B4D8F1;" cx="256.004" cy="256.004" r="218.786"/>
<path style="fill:#98C8ED;" d="M410.705,101.296c-85.442-85.442-223.971-85.442-309.41,0l309.41,309.41
	C496.147,325.263,496.145,186.735,410.705,101.296z"/>
<path style="fill:#88888F;" d="M373.838,40.064C319.179,74.847,254.439,128.643,191.54,191.54l25.784,25.784
	c58.564-58.562,119.041-109.26,170.291-142.752c57.08-37.305,82.463-39.821,87.497-37.682c2.139,5.036-0.377,30.417-37.68,87.5
	c-33.495,51.247-84.194,111.724-142.754,170.288l25.784,25.784c62.898-62.898,116.693-127.637,151.476-182.297
	c40.853-64.201,50.345-105.779,29.012-127.112C479.618-10.28,438.04-0.79,373.838,40.064z"/>
<path style="fill:#797781;" d="M373.838,40.064C319.179,74.847,254.439,128.643,191.54,191.54l25.784,25.784
	c58.564-58.562,119.041-109.26,170.291-142.752c57.08-37.305,82.463-39.821,87.497-37.682c2.139,5.036-0.377,30.417-37.68,87.5
	c-33.495,51.247-84.194,111.724-142.754,170.288l25.784,25.784c62.898-62.898,116.693-127.637,151.476-182.297
	c40.853-64.201,50.345-105.779,29.012-127.112C479.618-10.28,438.04-0.79,373.838,40.064z"/>
<path style="fill:#88888F;" d="M124.387,437.43c-57.08,37.305-82.463,39.821-87.497,37.682c-2.139-5.035,0.376-30.417,37.681-87.497
	c33.494-51.251,84.191-111.727,142.753-170.291l-25.784-25.784C128.643,254.437,74.849,319.18,40.064,373.837
	C-0.79,438.039-10.282,479.617,11.051,500.949s62.911,11.841,127.112-29.015c54.658-34.783,119.4-88.578,182.298-151.474
	l-25.784-25.784C236.114,353.239,175.638,403.937,124.387,437.43z"/>
<path style="fill:#B4D8F1;" d="M101.296,101.296c-85.442,85.442-85.442,223.97,0,309.41l309.409-309.41
	C325.264,15.854,186.736,15.856,101.296,101.296z"/>
<path style="fill:#98C8ED;" d="M410.705,101.296c-85.442-85.442-223.971-85.442-309.41,0l171.896,171.895l153.748-153.752
	C421.918,113.171,416.518,107.107,410.705,101.296z"/>
<g>
	<path style="fill:#7AB9E8;" d="M277.49,277.485l-0.002,0.002c-10.332,10.332-24.068,16.02-38.675,16.02
		c-30.161,0-54.698-24.538-54.698-54.696c0.001-14.61,5.692-28.346,16.024-38.676c10.33-10.332,24.064-16.021,38.673-16.02
		c30.158,0,54.695,24.536,54.7,54.694C293.507,253.421,287.82,267.156,277.49,277.485z M225.92,225.917
		c-3.445,3.445-5.342,8.025-5.342,12.895c0,10.052,8.179,18.23,18.231,18.23c4.87,0.001,9.449-1.897,12.894-5.342
		c0.001,0,0.001,0,0.002-0.001c3.442-3.442,5.34-8.021,5.34-12.891c0-10.05-8.18-18.228-18.237-18.23
		C233.942,220.575,229.364,222.474,225.92,225.917z"/>
	<path style="fill:#7AB9E8;" d="M281.785,135.674L281.785,135.674c-9.479,9.48-24.9,9.478-34.377-0.001
		c-9.479-9.477-9.479-24.898-0.001-34.377c9.478-9.479,24.9-9.479,34.379,0C291.264,110.774,291.264,126.196,281.785,135.674z"/>
</g>
</svg>